<?xml version="1.0" standalone="no"?>
<!DOCTYPE svg PUBLIC "-//W3C//DTD SVG 20010904//EN"
 "http://www.w3.org/TR/2001/REC-SVG-20010904/DTD/svg10.dtd">
<svg version="1.0" xmlns="http://www.w3.org/2000/svg"
 width="1078.000000pt" height="985.000000pt" viewBox="0 0 1078.000000 985.000000"
 preserveAspectRatio="xMidYMid meet">

<g transform="translate(0.000000,985.000000) scale(0.100000,-0.100000)"
fill="#000000" stroke="none">
<path d="M5100 9459 c-36 -5 -103 -20 -150 -35 -251 -78 -421 -225 -530 -457
-50 -106 -77 -221 -85 -362 -52 -864 -439 -1894 -1152 -3067 -63 -104 -117
-188 -121 -187 -4 0 -47 46 -97 101 -49 56 -151 157 -225 226 -284 261 -504
396 -767 469 -88 25 -114 28 -263 28 -101 0 -188 -6 -225 -14 -282 -62 -587
-224 -773 -409 -143 -143 -246 -315 -294 -489 -31 -116 -31 -317 0 -433 62
-228 204 -425 364 -506 73 -37 158 -51 343 -58 434 -16 660 -51 780 -121 48
-28 88 -70 146 -151 24 -34 76 -98 116 -142 85 -96 96 -114 121 -218 26 -102
38 -183 57 -374 25 -250 44 -351 91 -489 55 -159 139 -293 265 -422 l75 -76
-76 -12 c-144 -25 -273 -90 -346 -175 -51 -59 -100 -168 -120 -265 -56 -279
90 -548 411 -757 370 -240 1071 -442 1885 -541 209 -26 719 -25 875 0 390 64
584 168 732 390 68 103 96 184 97 282 0 93 -20 148 -79 214 -21 23 -36 43 -34
45 2 1 60 22 129 45 229 77 502 222 668 354 249 197 451 487 609 871 83 201
173 491 218 697 l17 77 51 -14 c105 -28 387 -83 552 -108 340 -50 480 -60 815
-61 286 0 324 2 412 22 346 76 621 319 720 633 20 64 23 96 23 220 0 127 -4
157 -28 244 -40 144 -96 246 -187 337 -162 162 -362 212 -601 149 -90 -23
-153 -49 -374 -150 -389 -178 -630 -230 -1228 -265 l-99 -6 174 89 c608 311
1197 732 1571 1122 266 277 407 498 500 785 121 370 141 468 142 710 0 214
-11 274 -72 403 -76 162 -267 297 -496 352 -246 59 -475 -22 -702 -247 -158
-158 -277 -329 -504 -728 -187 -328 -266 -445 -403 -593 -242 -262 -623 -595
-879 -768 -101 -69 -139 -86 -139 -66 0 5 84 132 186 283 531 782 637 955 849
1384 252 511 359 798 421 1136 27 145 25 388 -4 504 -101 399 -443 619 -942
602 -113 -3 -148 -8 -215 -31 -196 -66 -363 -215 -479 -426 -83 -152 -150
-339 -242 -675 -118 -435 -272 -726 -908 -1720 -174 -273 -223 -338 -288 -385
-48 -35 -122 -64 -142 -57 -18 7 -32 -29 254 647 454 1075 542 1324 572 1626
30 309 -52 562 -247 760 -144 145 -312 228 -516 254 -93 11 -115 11 -209 -1z
m319 -130 c227 -57 413 -220 500 -439 50 -127 64 -221 59 -399 -7 -221 -39
-350 -184 -747 -109 -300 -220 -580 -439 -1104 -98 -234 -178 -440 -179 -457
l-1 -33 -111 0 c-204 0 -706 -63 -742 -93 -25 -20 7 -24 106 -11 305 39 837
44 1122 9 794 -95 1373 -420 1732 -970 105 -160 199 -362 273 -585 37 -113 72
-211 78 -217 5 -7 16 -13 25 -13 12 0 14 13 10 78 l-6 77 157 3 c465 7 863 69
1141 177 47 18 155 65 240 105 363 169 545 195 726 104 74 -37 161 -114 210
-187 91 -136 141 -374 115 -544 -31 -195 -153 -385 -327 -509 -84 -60 -239
-132 -321 -149 -352 -74 -1103 -17 -1738 131 -60 15 -113 29 -117 33 -4 4 -16
41 -27 83 -32 124 -82 208 -116 194 -22 -8 -18 -38 10 -76 13 -18 38 -65 54
-104 l30 -72 -34 -162 c-81 -384 -231 -797 -387 -1062 -229 -389 -586 -669
-1051 -825 -317 -105 -668 -141 -907 -91 -95 20 -219 81 -287 141 -53 47 -85
55 -91 23 -9 -44 129 -148 253 -190 44 -15 73 -29 65 -32 -50 -16 -138 -27
-305 -37 -104 -6 -192 -13 -194 -15 -2 -2 -1 -11 3 -20 5 -14 23 -15 159 -9
189 8 290 20 373 46 60 18 74 19 188 8 140 -13 315 -2 470 30 l89 18 33 -29
c53 -46 87 -126 87 -203 0 -55 -6 -77 -40 -147 -98 -204 -260 -326 -512 -387
-393 -96 -825 -89 -1496 25 -726 123 -1206 290 -1528 530 -265 198 -350 493
-215 746 61 114 188 194 352 223 49 8 96 15 106 15 10 0 53 -28 96 -61 44 -34
135 -99 204 -144 69 -45 136 -95 150 -110 78 -85 278 -234 390 -290 57 -29
362 -163 392 -172 23 -7 35 24 17 43 -8 7 -93 50 -189 94 -162 75 -316 167
-400 240 l-35 30 75 -25 c158 -54 261 -69 460 -69 207 -1 278 10 460 70 114
38 256 109 274 136 8 14 7 21 -5 34 -15 14 -24 12 -105 -29 -150 -74 -263
-107 -444 -127 -446 -50 -910 137 -1328 535 -111 105 -177 191 -236 305 -82
159 -111 284 -145 625 -12 110 -25 224 -31 254 -5 30 -8 56 -6 58 5 5 118
-139 230 -294 78 -109 109 -134 122 -99 6 16 -8 40 -139 236 -125 187 -217
307 -331 430 -54 58 -119 137 -146 175 -157 230 -329 297 -825 325 -443 24
-435 23 -503 60 -113 60 -218 195 -273 349 -108 307 -22 622 240 881 188 185
488 341 736 385 238 41 459 3 695 -122 132 -69 229 -138 389 -277 433 -376
705 -735 820 -1081 26 -78 33 -90 54 -93 16 -2 27 3 31 13 7 20 -17 118 -50
199 -27 68 -27 69 49 86 273 58 600 -43 1002 -311 255 -171 261 -177 350 -334
163 -289 250 -496 262 -621 6 -68 20 -87 48 -64 55 46 -30 333 -203 684 l-83
169 103 -5 c183 -10 308 -63 645 -274 319 -200 436 -248 608 -248 83 0 113 4
178 27 88 31 132 56 120 68 -5 5 -44 -5 -87 -22 -157 -61 -313 -47 -496 43
-47 24 -180 106 -296 184 -358 239 -486 293 -714 302 l-135 5 -77 58 c-217
166 -527 339 -713 398 -231 74 -432 84 -591 28 l-40 -15 -63 108 c-35 59 -98
154 -141 211 -75 100 -78 105 -63 127 472 741 768 1320 999 1954 170 468 270
887 294 1228 19 274 36 355 102 483 105 201 328 354 564 386 90 12 229 4 323
-20z m2301 21 c324 -40 542 -202 625 -463 71 -223 39 -578 -83 -937 -66 -193
-238 -592 -359 -833 -147 -294 -274 -502 -643 -1057 -141 -212 -269 -406 -284
-432 -15 -27 -32 -48 -37 -48 -5 0 -37 22 -72 49 -361 282 -913 478 -1451 513
l-39 3 60 46 c77 60 122 122 427 594 404 624 551 872 657 1107 73 159 92 213
170 471 132 434 219 624 356 777 49 55 141 124 211 159 111 56 274 74 462 51z
m1960 -1486 c162 -54 326 -180 375 -286 51 -111 68 -201 68 -363 1 -160 -12
-254 -58 -425 -52 -193 -126 -409 -171 -496 -257 -505 -964 -1116 -1829 -1582
-150 -81 -374 -187 -408 -193 -16 -3 -25 14 -56 102 -102 287 -267 556 -479
780 l-80 85 61 32 c146 76 529 386 786 637 313 305 367 377 615 810 228 396
329 540 495 697 145 138 265 208 390 228 84 13 206 2 291 -26z"/>
<path d="M5832 2658 c-8 -8 -12 -46 -12 -105 0 -51 -4 -93 -9 -93 -6 0 -41 11
-79 25 -80 29 -92 30 -92 10 0 -18 24 -31 109 -60 l66 -22 3 -76 3 -75 -57 14
c-106 28 -111 -10 -5 -40 l58 -16 7 -77 c3 -42 6 -111 6 -155 0 -62 3 -80 16
-85 8 -3 18 -2 22 3 4 5 5 74 2 154 -3 80 -5 146 -4 147 0 2 26 -2 57 -8 l57
-12 1 -116 c1 -167 9 -216 34 -216 11 0 19 6 17 13 -1 7 -5 80 -9 163 l-6 151
39 -7 c68 -11 65 -6 59 -102 -6 -92 1 -120 29 -110 13 5 16 24 16 102 0 94 0
95 23 90 68 -16 148 -21 157 -10 16 19 -8 32 -75 40 -109 12 -105 9 -105 76 0
32 3 59 8 59 4 0 40 -6 79 -14 58 -11 75 -11 83 -1 16 19 -6 30 -89 45 l-74
12 7 100 c7 92 6 99 -11 96 -20 -4 -30 -39 -32 -115 0 -28 -6 -55 -11 -58 -6
-4 -29 -4 -50 0 l-40 7 0 120 c0 108 -2 119 -17 116 -15 -3 -19 -19 -24 -106
-4 -57 -8 -105 -11 -107 -2 -3 -30 3 -62 12 l-57 16 2 104 c3 104 -5 135 -29
111z m104 -279 l44 -11 0 -70 c0 -68 -1 -70 -22 -65 -13 3 -40 9 -60 12 l-38
7 0 75 c0 65 2 74 16 69 9 -4 36 -11 60 -17z m177 -46 c4 -2 7 -31 7 -64 0
-65 -2 -66 -69 -53 -31 6 -31 7 -31 71 l0 65 43 -7 c23 -4 45 -9 50 -12z"/>
<path d="M2312 8979 c-32 -12 -47 -55 -28 -84 18 -28 48 -36 77 -21 65 33 21
131 -49 105z"/>
<path d="M1725 8842 c-88 -27 -142 -58 -196 -113 -59 -61 -97 -140 -118 -246
-15 -78 -17 -82 -46 -87 -39 -8 -178 -149 -205 -208 -30 -65 -26 -142 9 -212
l29 -58 -44 -40 c-63 -58 -113 -164 -120 -253 -11 -136 53 -312 144 -397 56
-53 103 -67 166 -50 36 9 42 8 55 -11 38 -55 127 -137 179 -165 93 -49 160
-64 270 -60 122 5 172 27 262 118 l66 65 1 -38 c0 -22 9 -51 20 -65 50 -70
210 -104 291 -63 23 12 49 32 58 45 15 24 17 24 54 11 105 -37 186 -27 250 31
42 39 65 107 53 164 -5 29 -4 31 19 25 34 -9 76 28 104 92 39 89 29 146 -34
197 l-24 19 52 20 c66 24 131 88 148 143 18 60 15 152 -7 199 -22 50 -86 109
-135 125 -35 11 -36 13 -22 29 50 55 -23 176 -105 176 -21 0 -39 0 -39 0 0 0
11 27 25 60 48 117 28 204 -68 292 -110 100 -249 125 -367 66 l-60 -30 -6 22
c-3 13 -21 38 -40 56 -33 32 -40 34 -108 35 -67 2 -75 4 -107 34 -19 18 -59
44 -89 59 -72 34 -222 40 -315 13z m277 -42 c29 -11 77 -40 105 -66 52 -45 53
-45 107 -39 74 10 109 -9 132 -72 24 -66 28 -69 66 -39 52 39 102 56 166 56
72 0 111 -13 180 -58 77 -51 107 -100 107 -177 0 -52 -6 -74 -39 -139 -45 -88
-41 -109 17 -88 55 20 83 15 112 -19 44 -53 31 -74 -57 -93 -55 -12 -18 -56
47 -56 13 0 51 -15 86 -32 78 -41 109 -91 109 -177 -1 -107 -46 -166 -165
-213 -33 -14 -61 -31 -63 -40 -2 -10 14 -28 41 -47 47 -32 57 -47 57 -87 0
-29 -41 -114 -64 -133 -13 -11 -19 -8 -37 23 -13 23 -28 36 -38 34 -14 -3 -15
-17 -12 -101 4 -114 -6 -148 -56 -178 -44 -27 -116 -29 -196 -3 l-59 18 -31
-36 c-18 -20 -42 -41 -54 -47 -52 -26 -181 0 -222 43 -22 23 -23 31 -16 93 11
108 11 138 -1 138 -7 0 -35 -34 -63 -76 -61 -92 -125 -152 -194 -185 -93 -43
-256 -28 -369 33 -46 25 -147 122 -179 172 -14 23 -16 23 -70 11 -50 -11 -60
-10 -102 8 -92 41 -172 214 -171 368 0 71 4 90 32 147 22 45 51 82 90 117 54
48 56 52 42 73 -69 106 -77 172 -31 252 43 75 131 160 182 176 l44 14 13 80
c23 140 87 248 180 302 105 62 273 81 374 43z"/>
<path d="M1657 8684 c-14 -14 -7 -54 12 -64 28 -15 71 21 55 47 -11 19 -54 29
-67 17z"/>
<path d="M2045 8581 c-43 -19 -75 -58 -75 -90 0 -39 32 -34 45 7 17 55 120 80
192 46 46 -23 67 -57 73 -123 3 -30 10 -56 17 -58 7 -3 21 14 33 36 22 43 43
51 75 27 15 -11 17 -21 12 -60 -6 -41 -4 -46 12 -46 25 0 45 57 32 91 -17 46
-55 71 -100 68 -40 -3 -43 -1 -66 38 -46 76 -160 105 -250 64z"/>
<path d="M2652 8518 c-41 -20 -42 -97 -1 -119 70 -37 135 61 73 110 -30 23
-39 24 -72 9z"/>
<path d="M1586 8389 c-30 -5 -52 -19 -89 -58 -48 -51 -49 -54 -45 -101 4 -42
2 -52 -19 -71 -32 -31 -31 -78 3 -118 26 -32 64 -42 64 -18 0 8 -11 24 -25 37
-46 43 -22 93 40 83 31 -5 35 -3 35 16 0 11 -6 21 -13 21 -20 0 -47 33 -47 56
0 26 32 73 66 95 42 27 132 26 168 -2 19 -15 31 -18 38 -11 41 41 -78 89 -176
71z"/>
<path d="M2154 8317 c-50 -43 -24 -117 41 -117 65 0 91 74 41 117 -15 13 -33
23 -41 23 -8 0 -26 -10 -41 -23z"/>
<path d="M1726 8257 c-28 -21 -18 -69 18 -82 24 -8 31 -6 47 14 24 29 24 36
-1 61 -23 23 -39 25 -64 7z"/>
<path d="M2463 8158 c-25 -31 -25 -57 2 -84 31 -31 61 -29 89 9 19 26 19 30 5
55 -11 20 -24 28 -50 30 -21 2 -40 -2 -46 -10z"/>
<path d="M1296 8134 c-32 -31 -8 -84 38 -84 29 0 46 18 46 50 0 14 -5 31 -12
38 -17 17 -54 15 -72 -4z"/>
<path d="M1905 8050 c-51 -19 -59 -79 -14 -112 32 -24 73 -11 91 28 22 47 -28
102 -77 84z"/>
<path d="M2170 7911 c-23 -44 23 -83 61 -52 21 16 22 22 11 45 -14 32 -56 36
-72 7z"/>
<path d="M1275 7877 c-58 -58 -66 -148 -20 -214 9 -13 13 -32 10 -46 -17 -65
41 -161 93 -155 37 4 44 38 8 38 -29 0 -50 28 -61 79 -7 32 -6 33 18 27 14 -3
33 -9 42 -12 14 -6 16 -3 10 17 -10 34 -25 49 -45 49 -32 0 -60 48 -60 101 0
42 5 55 35 88 40 44 41 47 19 55 -10 4 -28 -6 -49 -27z"/>
<path d="M1510 7831 c-14 -27 -13 -47 6 -65 24 -24 61 -20 80 9 15 23 15 27 0
50 -21 31 -70 35 -86 6z"/>
<path d="M2423 7810 c-25 -10 -43 -39 -43 -69 0 -29 48 -64 80 -56 55 13 68
79 24 114 -30 23 -30 23 -61 11z"/>
<path d="M2750 7700 c0 -11 7 -20 15 -20 20 0 45 -52 45 -93 0 -38 -31 -90
-71 -120 -17 -12 -55 -22 -110 -28 -45 -5 -85 -11 -87 -14 -14 -14 11 -35 41
-35 56 0 97 -19 97 -44 0 -39 -33 -59 -86 -53 -34 3 -47 1 -51 -10 -9 -24 18
-34 76 -30 44 3 59 9 78 31 25 29 32 99 12 112 -7 4 2 12 22 21 115 48 159
203 79 283 -26 26 -60 27 -60 0z"/>
<path d="M1946 7629 c-31 -25 -34 -61 -6 -89 33 -33 76 -26 99 17 16 31 14 41
-14 68 -29 30 -45 31 -79 4z"/>
<path d="M2321 7494 c-12 -15 -21 -34 -21 -44 0 -33 39 -70 74 -70 60 0 93 66
56 113 -29 37 -80 37 -109 1z"/>
<path d="M1607 7362 c-36 -40 -9 -102 45 -102 51 0 78 69 40 103 -24 22 -65
21 -85 -1z"/>
<path d="M1437 7363 c-24 -23 13 -155 54 -196 28 -27 34 -29 89 -25 52 4 60 2
60 -13 0 -20 43 -57 77 -65 52 -13 133 37 133 82 0 33 -16 30 -54 -11 -37 -38
-60 -43 -94 -19 -32 22 -28 37 23 82 69 61 56 100 -16 46 -93 -70 -165 -82
-201 -33 -11 14 -24 55 -31 92 -10 61 -22 79 -40 60z"/>
<path d="M2070 7331 c-16 -31 4 -63 37 -59 34 4 52 32 37 56 -16 26 -60 28
-74 3z"/>
<path d="M2355 7180 c-8 -14 3 -30 21 -30 8 0 14 9 14 20 0 21 -24 28 -35 10z"/>
<path d="M1113 8689 c-26 -9 -41 -55 -26 -78 6 -9 22 -20 36 -25 21 -8 31 -6
47 9 49 44 5 117 -57 94z"/>
<path d="M3113 8578 c-73 -19 -97 -111 -45 -168 38 -42 86 -49 132 -18 101 68
32 218 -87 186z"/>
<path d="M850 7498 c-26 -28 -26 -58 1 -92 39 -50 122 -22 122 42 0 66 -78 98
-123 50z"/>
<path d="M3125 7258 c-63 -36 -57 -123 11 -148 29 -11 81 5 94 30 40 74 -35
158 -105 118z"/>
<path d="M2141 6909 c-33 -31 -44 -66 -31 -105 22 -64 104 -86 157 -40 23 20
28 32 28 71 0 39 -5 51 -28 71 -36 31 -94 32 -126 3z"/>
<path d="M8154 2570 c-30 -12 -64 -58 -64 -87 0 -85 109 -135 163 -75 47 52
36 126 -22 156 -33 18 -46 19 -77 6z"/>
<path d="M8406 2348 c-81 -18 -140 -77 -167 -166 l-12 -41 -31 25 c-26 22 -37
25 -78 22 -55 -6 -98 -38 -98 -74 0 -23 -1 -23 -37 -7 -48 19 -118 20 -164 0
-42 -17 -101 -74 -126 -120 -24 -45 -22 -139 4 -197 l20 -45 -36 3 c-59 6
-101 -30 -128 -108 -28 -83 -28 -96 1 -125 18 -18 21 -25 10 -29 -26 -10 -74
-98 -74 -135 1 -78 60 -154 150 -191 23 -9 30 -19 30 -39 0 -47 19 -94 52
-129 41 -42 121 -82 168 -82 38 0 99 32 102 52 0 7 4 -30 8 -83 5 -76 12 -108
34 -152 72 -149 287 -250 463 -220 61 11 69 10 77 -5 20 -35 67 -70 110 -81
58 -14 127 -1 222 45 97 46 166 110 206 192 28 57 34 79 36 154 4 86 4 87 32
93 58 13 116 60 145 119 24 49 27 68 28 153 0 70 -5 109 -16 137 -16 36 -16
39 3 66 11 16 35 59 53 97 28 61 32 78 32 158 0 85 -2 96 -38 168 -73 147
-188 234 -325 245 -60 5 -69 8 -101 43 -44 45 -92 57 -142 36 l-35 -14 -18 49
c-24 69 -96 140 -166 165 -68 25 -143 33 -194 21z m200 -66 c71 -36 134 -124
134 -187 0 -36 22 -41 74 -16 56 27 83 21 131 -30 20 -21 39 -39 43 -40 4 0
35 -2 69 -3 123 -7 227 -86 296 -226 28 -57 32 -74 32 -145 -1 -88 -24 -154
-86 -240 -18 -24 -29 -50 -25 -57 4 -7 13 -24 21 -38 10 -17 15 -55 15 -120 0
-158 -42 -214 -180 -244 -25 -5 -26 -6 -25 -108 0 -95 -2 -107 -29 -156 -39
-70 -98 -123 -187 -168 -84 -42 -169 -55 -220 -34 -17 7 -42 30 -55 52 -27 42
-30 43 -121 27 -127 -22 -270 26 -369 126 -71 71 -89 131 -80 265 3 52 9 110
12 128 5 27 3 32 -12 32 -13 0 -30 -20 -52 -60 -40 -73 -69 -95 -118 -87 -43
7 -123 57 -143 89 -8 12 -15 46 -16 75 -1 29 -3 54 -6 56 -2 2 -30 16 -61 31
-67 32 -105 72 -114 123 -9 48 14 91 83 149 74 64 71 89 -10 69 -25 -7 -27 -5
-27 26 1 43 33 114 58 128 11 6 42 8 71 4 67 -8 74 9 35 88 -50 105 -32 191
53 256 24 19 50 28 89 31 49 4 64 0 131 -33 61 -32 76 -36 83 -24 6 9 4 21 -6
34 -32 44 -39 66 -23 76 52 34 100 22 124 -31 29 -63 52 -50 76 43 16 65 59
130 100 150 48 25 178 19 235 -11z"/>
<path d="M8436 2218 c-22 -30 -20 -54 5 -79 27 -27 66 -21 92 12 17 24 18 30
6 55 -19 40 -79 47 -103 12z"/>
<path d="M8614 2020 c-28 -11 -54 -48 -54 -77 0 -32 26 -29 42 5 11 22 20 27
48 27 32 0 35 -2 34 -30 0 -16 -4 -38 -8 -47 -15 -33 22 -32 50 1 14 17 42 36
63 42 32 10 45 8 84 -9 64 -28 90 -71 82 -134 -4 -36 -2 -48 8 -48 23 0 37 23
37 62 0 111 -122 202 -224 168 -33 -11 -38 -9 -58 14 -26 28 -72 39 -104 26z"/>
<path d="M8345 1870 c-41 -46 29 -116 75 -75 22 20 27 64 8 83 -19 19 -63 14
-83 -8z"/>
<path d="M8646 1791 c-41 -45 11 -123 67 -102 48 18 55 85 13 113 -21 14 -63
8 -80 -11z"/>
<path d="M7861 1728 c-51 -35 -73 -82 -68 -148 2 -30 7 -65 11 -76 6 -16 3
-22 -12 -26 -29 -8 -55 -63 -47 -98 7 -31 66 -90 90 -90 23 0 17 30 -10 52
-37 29 -48 54 -35 78 15 27 29 25 84 -11 34 -23 50 -29 58 -21 8 8 0 23 -30
55 -52 57 -72 97 -72 142 0 71 47 125 108 125 26 0 33 4 30 18 -5 27 -67 28
-107 0z"/>
<path d="M9244 1716 c-3 -8 -4 -23 -2 -33 5 -25 61 -25 66 0 7 37 -51 67 -64
33z"/>
<path d="M8160 1600 c-24 -24 -25 -48 -4 -78 18 -26 65 -30 88 -6 24 23 20 70
-6 88 -30 21 -54 20 -78 -4z"/>
<path d="M8422 1528 c-32 -32 8 -80 48 -58 34 18 19 70 -20 70 -9 0 -21 -5
-28 -12z"/>
<path d="M9015 1530 c-9 -14 3 -30 23 -30 23 0 83 -37 104 -63 23 -28 25 -129
4 -147 -8 -6 -32 -10 -53 -8 -29 2 -38 -1 -41 -14 -2 -11 6 -22 22 -29 53 -25
20 -84 -42 -77 -21 2 -27 -1 -27 -17 0 -17 6 -20 49 -19 57 1 86 26 86 76 0
20 8 37 25 50 31 24 47 84 39 139 -11 69 -96 149 -158 149 -14 0 -28 -4 -31
-10z"/>
<path d="M8926 1474 c-9 -8 -16 -22 -16 -29 0 -7 7 -21 16 -29 30 -30 74 -13
74 29 0 42 -44 59 -74 29z"/>
<path d="M8662 1438 c-24 -31 -23 -57 3 -83 26 -26 52 -27 83 -3 17 14 15 63
-4 82 -19 19 -68 21 -82 4z"/>
<path d="M8026 1359 c-48 -38 -23 -109 38 -109 60 0 88 68 46 110 -26 26 -51
25 -84 -1z"/>
<path d="M8390 1213 c-21 -7 -40 -34 -40 -55 0 -24 35 -58 60 -58 26 0 60 34
60 60 0 23 -34 60 -52 59 -7 0 -20 -3 -28 -6z"/>
<path d="M9136 1131 c-33 -36 10 -94 53 -72 27 15 34 41 16 67 -19 29 -46 31
-69 5z"/>
<path d="M7880 1126 c0 -9 7 -16 16 -16 9 0 14 5 12 12 -6 18 -28 21 -28 4z"/>
<path d="M8132 1078 c-32 -32 2 -79 43 -60 39 18 27 72 -15 72 -9 0 -21 -5
-28 -12z"/>
<path d="M8808 1079 c-21 -12 -24 -59 -6 -77 7 -7 21 -12 33 -12 46 0 62 57
23 84 -26 19 -27 19 -50 5z"/>
<path d="M9030 919 c0 -45 -4 -55 -35 -86 -34 -34 -36 -35 -93 -28 -45 5 -61
3 -70 -8 -11 -12 -7 -17 20 -27 l33 -11 -30 -25 c-34 -27 -70 -31 -79 -9 -6
17 -36 9 -36 -10 0 -21 35 -45 66 -45 35 0 87 30 109 63 9 15 30 28 49 31 33
6 74 42 95 83 23 44 9 123 -21 123 -4 0 -8 -23 -8 -51z"/>
<path d="M8430 815 c-16 -20 -16 -61 0 -80 21 -25 72 -15 89 16 13 24 13 29
-2 53 -20 30 -67 36 -87 11z"/>
<path d="M8344 758 c8 -65 1 -88 -29 -88 -33 0 -55 31 -55 78 0 47 -21 58 -41
21 -16 -30 4 -92 38 -118 26 -22 97 -29 107 -12 3 5 23 -9 45 -30 44 -44 80
-50 134 -23 62 31 122 104 86 104 -6 0 -28 -13 -48 -29 -105 -84 -151 -65
-189 76 -14 48 -24 69 -37 71 -16 4 -17 -2 -11 -50z"/>
<path d="M8964 2305 c-33 -50 20 -104 71 -71 27 18 34 63 13 84 -21 21 -66 14
-84 -13z"/>
<path d="M7326 1679 c-34 -27 -36 -77 -3 -107 31 -30 72 -28 104 4 20 20 24
31 19 57 -12 62 -70 85 -120 46z"/>
<path d="M9594 1369 c-17 -19 -17 -23 -3 -47 21 -38 62 -41 85 -8 15 24 15 28
0 51 -20 31 -56 33 -82 4z"/>
<path d="M7739 851 c-57 -58 -21 -146 60 -146 50 0 79 26 88 78 5 31 1 40 -25
67 -41 40 -83 41 -123 1z"/>
<path d="M9016 449 c-44 -35 -31 -101 24 -114 36 -9 80 27 80 65 0 29 -38 70
-65 70 -7 0 -24 -9 -39 -21z"/>
</g>
</svg>
